<svg xmlns="http://www.w3.org/2000/svg" xmlns:xlink="http://www.w3.org/1999/xlink" version="1.1" x="0px" y="0px" viewBox="0 0 100 125" style="enable-background:new 0 0 100 100;" xml:space="preserve"><g><path d="M81.65,28.005c0.553,0,1-0.448,1-1V22.4c0-0.552-0.447-1-1-1c-0.771,0-1.498-0.339-1.994-0.931   c-0.038-0.045-0.079-0.087-0.125-0.125c-0.592-0.496-0.932-1.223-0.932-1.994c0-0.552-0.447-1-1-1h-4.605c-0.553,0-1,0.448-1,1   c0,1.434-1.166,2.6-2.6,2.6h-0.843c-1.434,0-2.601-1.167-2.601-2.6c0-0.552-0.447-1-1-1h-4.605c-0.553,0-1,0.448-1,1   c0,1.434-1.166,2.6-2.6,2.6h-0.843c-1.434,0-2.6-1.167-2.6-2.6c0-0.552-0.447-1-1-1h-4.605c-0.553,0-1,0.448-1,1   c0,1.434-1.167,2.6-2.601,2.6h-0.844c-1.434,0-2.6-1.167-2.6-2.6c0-0.552-0.447-1-1-1h-4.605c-0.553,0-1,0.448-1,1   c0,1.434-1.167,2.6-2.601,2.6h-0.843c-1.434,0-2.6-1.167-2.6-2.6c0-0.552-0.447-1-1-1H22.4c-0.553,0-1,0.448-1,1   c0,0.771-0.34,1.498-0.932,1.995c-0.045,0.038-0.086,0.079-0.124,0.124c-0.496,0.592-1.223,0.931-1.995,0.931   c-0.266,0-0.52,0.105-0.707,0.293S17.35,22.135,17.35,22.4l0.001,4.605c0,0.552,0.448,1,1,1c1.434,0,2.6,1.167,2.6,2.6v0.843   c0,1.434-1.167,2.6-2.601,2.6c-0.266,0-0.52,0.105-0.707,0.293s-0.293,0.442-0.293,0.707l0.001,4.605c0,0.552,0.448,1,1,1   c1.434,0,2.6,1.167,2.6,2.6v0.843c0,0.694-0.271,1.347-0.762,1.838c-0.491,0.491-1.144,0.761-1.838,0.761H18.35   c-0.266,0-0.52,0.105-0.707,0.293s-0.293,0.442-0.293,0.707l0.001,4.605c0,0.552,0.448,1,1,1c1.434,0,2.6,1.166,2.6,2.6v0.844   c0,1.434-1.167,2.6-2.601,2.6c-0.266,0-0.52,0.105-0.707,0.293s-0.293,0.442-0.293,0.707l0.001,4.605c0,0.552,0.448,1,1,1   c1.434,0,2.6,1.167,2.6,2.6v0.843c0,1.434-1.167,2.6-2.601,2.6c-0.266,0-0.52,0.105-0.707,0.293s-0.293,0.442-0.293,0.707   l0.001,4.605c0,0.552,0.448,1,1,1c0.771,0,1.498,0.339,1.994,0.932c0.038,0.045,0.079,0.087,0.124,0.125   c0.592,0.496,0.932,1.222,0.932,1.994c0,0.552,0.447,1,1,1h4.605c0.553,0,1-0.448,1-1c0-1.434,1.166-2.6,2.6-2.6h0.843   c1.434,0,2.601,1.166,2.601,2.6c0,0.552,0.447,1,1,1h4.605c0.553,0,1-0.448,1-1c0-1.434,1.166-2.6,2.6-2.6h0.843   c1.434,0,2.601,1.166,2.601,2.6c0,0.552,0.447,1,1,1h4.605c0.553,0,1-0.448,1-1c0-1.434,1.166-2.6,2.6-2.6h0.844   c1.434,0,2.6,1.166,2.6,2.6c0,0.552,0.447,1,1,1h4.605c0.552,0,1-0.447,1-1c0.001-1.434,1.167-2.6,2.601-2.6h0.843   c1.434,0,2.6,1.166,2.6,2.6c0,0.552,0.447,1,1,1H77.6c0.553,0,1-0.448,1-1c0-0.771,0.34-1.498,0.932-1.993   c0.045-0.038,0.087-0.08,0.125-0.125c0.496-0.592,1.223-0.932,1.994-0.932c0.553,0,1-0.448,1-1v-4.605c0-0.552-0.447-1-1-1   c-1.434,0-2.601-1.167-2.601-2.6v-0.843c0-1.434,1.167-2.6,2.601-2.6c0.553,0,1-0.448,1-1v-4.605c0-0.552-0.447-1-1-1   c-1.434,0-2.601-1.166-2.601-2.6v-0.844c0-1.434,1.167-2.6,2.601-2.6c0.553,0,1-0.448,1-1v-4.605c0-0.552-0.447-1-1-1   c-1.434,0-2.601-1.167-2.601-2.6v-0.843c0-1.434,1.167-2.6,2.601-2.6c0.553,0,1-0.448,1-1v-4.605c0-0.552-0.447-1-1-1   c-1.434,0-2.601-1.167-2.601-2.6v-0.843C79.05,29.172,80.217,28.005,81.65,28.005z M80.65,35.939v2.824   c-2.058,0.458-3.601,2.297-3.601,4.491v0.843c0,2.193,1.543,4.033,3.601,4.491v2.824c-2.058,0.458-3.601,2.297-3.601,4.49v0.844   c0,2.193,1.543,4.033,3.601,4.49v2.824c-2.058,0.458-3.601,2.297-3.601,4.491v0.843c0,2.193,1.543,4.033,3.601,4.491v2.824   c-0.952,0.211-1.817,0.721-2.47,1.471c-0.75,0.652-1.261,1.518-1.472,2.47h-2.824c-0.458-2.057-2.297-3.6-4.49-3.6h-0.843   c-2.192,0-4.032,1.542-4.491,3.6h-2.824c-0.458-2.057-2.297-3.6-4.49-3.6h-0.844c-2.193,0-4.032,1.542-4.49,3.6h-2.824   c-0.458-2.057-2.298-3.6-4.491-3.6h-0.843c-2.193,0-4.032,1.542-4.49,3.6h-2.824c-0.458-2.057-2.298-3.6-4.491-3.6h-0.843   c-2.193,0-4.032,1.542-4.49,3.6h-2.824c-0.211-0.952-0.721-1.817-1.471-2.469c-0.651-0.75-1.519-1.26-2.471-1.471l0.001-2.824   c2.057-0.458,3.6-2.297,3.6-4.491v-0.843c0-2.193-1.543-4.033-3.601-4.491l0.001-2.824c2.057-0.458,3.6-2.297,3.6-4.49v-0.844   c0-2.193-1.543-4.032-3.601-4.49l0.001-2.824c2.057-0.458,3.6-2.297,3.6-4.491v-0.843c0-2.193-1.543-4.033-3.601-4.491l0.001-2.824   c2.057-0.458,3.6-2.297,3.6-4.491v-0.843c0-2.193-1.543-4.033-3.601-4.491l0.001-2.824c0.952-0.211,1.818-0.721,2.47-1.471   c0.75-0.652,1.26-1.518,1.471-2.47h2.824c0.458,2.057,2.297,3.6,4.49,3.6h0.843c2.193,0,4.033-1.543,4.491-3.6h2.824   c0.458,2.057,2.297,3.6,4.49,3.6h0.844c2.193,0,4.033-1.543,4.491-3.6h2.824c0.458,2.057,2.297,3.6,4.49,3.6h0.843   c2.193,0,4.032-1.543,4.49-3.6h2.824c0.458,2.057,2.298,3.6,4.491,3.6h0.843c2.193,0,4.032-1.543,4.49-3.6h2.824   c0.211,0.952,0.722,1.818,1.472,2.47c0.652,0.749,1.518,1.259,2.47,1.47v2.824c-2.058,0.458-3.601,2.297-3.601,4.491v0.843   C77.05,33.642,78.593,35.481,80.65,35.939z"/><path d="M73.95,45.444V27.05c0-0.552-0.447-1-1-1h-45.9c-0.553,0-1,0.448-1,1v43.199c0,0-0.132,2.744,0.237,3.326   c0.183,0.224,0.451,0.376,0.763,0.376h45.9c0.553,0,1-0.448,1-1V49.455 M28.05,28.05h43.9v13.918l-2.958-5.141   c-0.712-1.346-1.577-2.038-2.573-2.055c-0.674,0.016-1.739,0.33-2.717,2.034l-14.78,26.377l-7.726-11.304   c-0.333-0.565-0.969-0.917-1.66-0.917c-0.001,0-0.001,0-0.002,0c-0.69,0-1.327,0.351-1.641,0.883L28.05,67.141V28.05z M71.95,71.95   h-43.9v-1.116l11.481-17.85l8.649,12.658c0.195,0.286,0.52,0.45,0.869,0.435c0.346-0.015,0.659-0.208,0.828-0.51l15.563-27.774   c0.484-0.843,0.875-1.037,0.943-1.021c0.082,0.001,0.415,0.187,0.856,1.021l4.709,8.185V71.95z"/><path d="M43.743,38.497c0-3.513-2.858-6.372-6.372-6.372c-3.513,0-6.371,2.858-6.371,6.372s2.858,6.371,6.371,6.371   C40.885,44.868,43.743,42.01,43.743,38.497z M37.371,42.868c-2.41,0-4.371-1.961-4.371-4.371c0-2.411,1.961-4.372,4.371-4.372   c2.411,0,4.372,1.961,4.372,4.372C41.743,40.907,39.782,42.868,37.371,42.868z"/></g></svg>